<svg id="Capa_1" enable-background="new 0 0 512 512" height="512" viewBox="0 0 512 512" width="512" xmlns="http://www.w3.org/2000/svg"><g><g><path d="m456.291 415.426c34.862-43.74 55.709-99.145 55.709-159.426 0-141.385-114.615-256-256-256s-256 114.615-256 256c0 60.281 20.847 115.686 55.709 159.426z" fill="#ffe400"/></g><g><path d="m142.02 182-86.311 233.426c46.904 58.849 119.187 96.574 200.291 96.574s153.387-37.725 200.291-96.574l-86.311-233.426z" fill="#725057"/></g><g><path d="m159.994 182h-17.974l-86.311 233.426c28.497 35.754 66.373 63.688 109.893 80.125l15.178-61.426c1.408-5.699-5.671-9.554-9.694-5.279l-4.789 5.088c-4.097 4.353-11.28.276-9.642-5.473l8.31-29.179c1.558-5.471-4.973-9.603-9.25-5.852-4.446 3.9-11.158-.707-9.118-6.258l75.423-205.172z" fill="#543438"/></g><g><path d="m178.5 44.139c-34.5 14.861-81.5-44.139-120.5-44.139s35.5 145 35.5 145l88.167-93.5z" fill="#725057"/></g><g><path d="m108.82 84.286c-9.832 12.092-18.557 25.211-25.991 38.824 6.187 13.161 10.671 21.89 10.671 21.89l88.167-93.5-3.167-7.361c-8.415 3.625-17.575 2.848-27.18-.388-15.284 11.072-29.566 24.63-42.5 40.535z" fill="#543438"/></g><g><path d="m61.691 15.26c-6.691 4.99 14.637 78.229 45.723 114.985l33.586-35.618s-72.617-84.357-79.309-79.367z" fill="#543438"/></g><g><path d="m333.5 44.139c34.5 14.861 81.5-44.139 120.5-44.139s-35.5 145-35.5 145l-88.167-93.5z" fill="#725057"/></g><g><path d="m429.17 123.11c-7.433-13.613-16.158-26.732-25.991-38.824-12.934-15.905-27.216-29.463-42.5-40.535-9.605 3.236-18.765 4.012-27.18.388l-3.167 7.361 88.168 93.5s4.484-8.729 10.67-21.89z" fill="#543438"/></g><g><path d="m450.309 15.26c6.691 4.99-14.636 78.229-45.722 114.985l-33.587-35.618s72.617-84.357 79.309-79.367z" fill="#543438"/></g><g><path d="m256 23.667c-113 0-186.333 120.667-186.333 198.667s79.333 130.666 186.333 130.666 186.333-52.667 186.333-130.667-73.333-198.666-186.333-198.666z" fill="#7e5966"/></g><g><path d="m254.469 188.333c-17.969 0-42.969 67.667-42.969 67.667h42.969 42.969s-25-67.667-42.969-67.667z" fill="#725057"/></g><g><path d="m139.667 222.333c0-69.62 58.427-173.224 151.333-194.683-11.182-2.583-22.86-3.984-35-3.984-113 0-186.333 120.667-186.333 198.667s79.333 130.667 186.333 130.667c12.043 0 23.732-.673 35-1.968-88.849-10.214-151.333-59.478-151.333-128.699z" fill="#725057"/></g><g><circle cx="178.5" cy="188.333" fill="#543438" r="15"/></g><g><circle cx="186" cy="180.833" fill="#fff" r="7.5"/></g><g><circle cx="333.5" cy="188.333" fill="#543438" r="15"/></g><g><circle cx="341" cy="180.833" fill="#fff" r="7.5"/></g><g><circle cx="256" cy="340.912" fill="#fff" r="50.23"/></g><g><g><path d="m295.541 256.689c-6.507-.191-12.751.83-18.524 2.853-13.57 4.756-28.464 4.756-42.034 0-5.773-2.023-12.017-3.044-18.524-2.853-26.152.766-47.866 21.568-49.666 47.669-2.069 29.998 21.652 54.975 51.208 54.975 5.967 0 11.696-1.018 17.023-2.89 13.539-4.757 28.416-4.757 41.955 0 5.327 1.872 11.056 2.89 17.023 2.89 29.555 0 53.277-24.977 51.208-54.975-1.803-26.1-23.517-46.903-49.669-47.669z" fill="#fff"/></g></g><g><path d="m256 289.667c-4.142 0-7.5 3.358-7.5 7.5v56.161c4.981-.592 10.019-.592 15 0v-56.161c0-4.142-3.358-7.5-7.5-7.5z" fill="#e6f0ff"/></g><g><path d="m211.792 304.359c1.313-19.039 13.228-35.249 29.727-42.929-2.204-.514-4.388-1.134-6.536-1.887-5.773-2.023-12.017-3.044-18.524-2.853-26.152.766-47.866 21.568-49.666 47.669-2.069 29.997 21.652 54.975 51.208 54.975 5.967 0 11.696-1.018 17.023-2.89 2.108-.741 4.251-1.352 6.413-1.862-18.6-8.626-31.174-28.046-29.645-50.223z" fill="#e6f0ff"/></g><g><path d="m293 239.667c-14.153-7.523-20 7.333-37 7.333s-22.847-14.856-37-7.333c-37 19.667 0 64.667 37 64.667s74-45.001 37-64.667z" fill="#d85e41"/></g><g><path d="m242.735 243.784c-8.201-3.883-14.006-9.288-23.735-4.117-37 19.667 0 64.667 37 64.667 5.064 0 10.126-.848 15-2.353-28.436-8.783-50.412-40.113-28.265-58.197z" fill="#c04a27"/></g><g><path d="m111.145 332.509c-2.931 0-5.715-1.729-6.919-4.602-1.602-3.82.196-8.216 4.017-9.817 34.8-14.591 71.329-17.454 72.867-17.569 4.133-.305 7.729 2.791 8.037 6.922.309 4.13-2.79 7.728-6.919 8.037-.43.032-35.738 2.84-68.185 16.444-.949.396-1.932.585-2.898.585z" fill="#fff"/></g><g><path d="m400.855 332.509c-.967 0-1.95-.188-2.897-.585-32.573-13.657-67.831-16.418-68.183-16.444-4.13-.309-7.229-3.907-6.921-8.037.308-4.132 3.902-7.225 8.037-6.922 1.538.115 38.066 2.979 72.867 17.569 3.82 1.602 5.618 5.997 4.017 9.817-1.204 2.872-3.989 4.602-6.92 4.602z" fill="#fff"/></g><g><path d="m123.663 388.167c-1.72 0-3.448-.588-4.86-1.791-3.153-2.686-3.532-7.419-.846-10.572 31.534-37.019 64.925-50.251 66.332-50.796 3.863-1.499 8.207.419 9.704 4.28 1.497 3.859-.417 8.2-4.272 9.701-.527.209-31.515 12.698-60.344 46.541-1.484 1.741-3.593 2.637-5.714 2.637z" fill="#fff"/></g><g><path d="m388.337 388.167c-2.121 0-4.229-.895-5.713-2.637-29.101-34.161-60.026-46.418-60.335-46.537-3.862-1.498-5.779-5.843-4.281-9.705 1.497-3.861 5.842-5.778 9.704-4.28 1.406.545 34.797 13.777 66.332 50.796 2.686 3.153 2.307 7.887-.846 10.572-1.413 1.203-3.141 1.791-4.861 1.791z" fill="#fff"/></g></g></svg>